<?xml version="1.0" standalone="no"?>
<!DOCTYPE svg PUBLIC "-//W3C//DTD SVG 20010904//EN"
 "http://www.w3.org/TR/2001/REC-SVG-20010904/DTD/svg10.dtd">
<svg version="1.0" xmlns="http://www.w3.org/2000/svg"
 width="500.000000pt" height="500.000000pt" viewBox="0 0 500.000000 500.000000"
 preserveAspectRatio="xMidYMid meet">

<g transform="translate(0.000000,500.000000) scale(0.100000,-0.100000)"
fill="#000000" stroke="none">
<path d="M0 2500 l0 -2500 2500 0 2500 0 0 2500 0 2500 -2500 0 -2500 0 0
-2500z m3160 -20 c6 0 10 -4 10 -10 0 -5 -16 -10 -35 -10 -19 0 -35 5 -35 10
0 6 5 10 10 10 14 0 13 167 -1 176 -8 4 -3 11 12 20 l24 12 3 -104 c1 -58 7
-104 12 -104z m-1482 165 c2 -26 1 -28 -10 -14 -20 25 -57 41 -78 34 -34 -11
-60 -54 -60 -100 0 -36 5 -48 31 -69 39 -33 63 -33 96 0 29 30 41 25 25 -11
-10 -23 -17 -25 -69 -25 -83 1 -123 38 -123 115 0 29 8 45 35 72 32 32 37 34
92 31 56 -3 58 -4 61 -33z m510 8 c-5 -25 -28 -28 -28 -4 0 12 6 21 16 21 9 0
14 -7 12 -17z m-90 -59 c4 2 14 1 22 -5 12 -7 11 -9 -5 -10 -11 -1 -23 -1 -27
0 -5 0 -8 -20 -8 -45 0 -37 4 -47 20 -51 32 -9 23 -25 -12 -21 -33 3 -33 4
-36 61 -2 34 -8 57 -14 57 -6 0 -1 11 12 25 24 26 24 26 32 5 4 -12 11 -19 16
-16z m742 -4 c12 0 18 -4 15 -10 -4 -6 -16 -8 -26 -5 -18 6 -20 3 -17 -42 2
-39 6 -48 21 -47 10 1 16 -3 14 -10 -2 -6 -17 -11 -33 -11 -28 0 -29 2 -32 50
-2 27 -9 53 -15 57 -8 5 -4 15 13 33 24 25 24 25 32 5 4 -11 16 -20 28 -20z
m-1011 -16 c12 -15 21 -34 21 -44 0 -34 -39 -70 -75 -70 -36 0 -75 36 -75 70
0 34 39 70 75 70 24 0 39 -7 54 -26z m158 15 c7 -7 13 -32 13 -60 0 -27 5 -49
10 -49 6 0 10 -4 10 -8 0 -5 -16 -9 -35 -10 -34 -1 -46 10 -25 23 15 10 12 71
-5 85 -12 10 -18 10 -30 0 -17 -14 -20 -75 -5 -85 21 -13 9 -25 -25 -25 -19 0
-35 5 -35 10 0 6 5 10 11 10 8 0 10 18 7 55 -5 59 -5 60 61 63 19 1 40 -3 48
-9z m203 -49 c0 -33 4 -60 10 -60 6 0 10 -4 10 -10 0 -5 -16 -10 -35 -10 -33
0 -46 12 -26 25 12 7 12 85 0 85 -5 0 -9 4 -9 9 0 8 16 16 43 20 4 0 7 -26 7
-59z m155 50 c4 -6 8 -28 9 -48 2 -20 6 -47 10 -59 6 -20 4 -23 -22 -23 -29 0
-29 0 -24 54 4 55 -4 71 -32 60 -18 -7 -23 -94 -6 -94 6 0 10 -4 10 -10 0 -5
-16 -10 -35 -10 -19 0 -35 5 -35 10 0 6 5 10 10 10 15 0 13 90 -2 90 -8 1 -6
6 4 14 21 16 104 20 113 6z m90 -43 c0 -54 16 -77 40 -57 21 17 20 79 -2 87
-15 6 -15 7 3 14 38 15 42 10 46 -56 3 -72 4 -71 -64 -74 -44 -2 -58 17 -58
78 0 26 -5 41 -12 42 -7 0 -4 4 7 9 32 14 40 6 40 -43z m219 34 c24 -27 12
-41 -35 -41 -32 0 -39 -3 -39 -20 0 -27 34 -44 60 -30 22 12 27 1 8 -18 -37
-37 -116 14 -103 68 15 58 74 80 109 41z m329 5 c29 -22 33 -80 8 -105 -47
-47 -124 -15 -124 51 0 55 70 88 116 54z m321 -5 c23 -25 23 -76 1 -101 -41
-45 -125 -12 -125 50 0 61 84 96 124 51z m96 9 c0 -5 -5 -10 -10 -12 -7 -2 -6
-14 3 -36 l13 -33 13 27 c6 14 9 34 6 44 -5 14 0 18 20 16 14 0 24 -3 22 -6
-2 -3 -16 -33 -32 -67 -15 -35 -31 -63 -35 -63 -4 0 -20 28 -35 63 -16 34 -30
64 -32 68 -2 3 12 5 32 6 19 1 35 -3 35 -7z m188 -2 c7 -7 12 -20 12 -30 0
-14 -8 -18 -40 -18 -33 0 -40 -3 -40 -20 0 -27 34 -44 60 -30 14 7 20 8 20 0
0 -16 -46 -33 -73 -26 -46 11 -59 102 -18 126 23 13 65 12 79 -2z"/>
<path d="M1755 2574 c-20 -20 -19 -78 1 -95 33 -27 64 20 50 76 -7 29 -31 38
-51 19z"/>
<path d="M2590 2575 c-11 -13 -9 -15 15 -15 16 0 25 5 23 12 -7 19 -24 20 -38
3z"/>
<path d="M2917 2572 c-21 -23 -22 -66 -1 -86 19 -19 26 -20 42 -4 16 16 16 80
0 96 -16 16 -22 15 -41 -6z"/>
<path d="M3237 2578 c-21 -11 -23 -80 -3 -97 32 -26 65 21 52 73 -7 28 -26 38
-49 24z"/>
<path d="M3530 2574 c-10 -12 -8 -14 14 -14 28 0 35 14 12 23 -8 3 -20 -1 -26
-9z"/>
</g>
</svg>
